<svg xmlns="http://www.w3.org/2000/svg" width="184.13" height="35" viewBox="0 0 184.13 35"><rect class="svg__rect" x="0" y="0" width="81.45" height="35" fill="#000000"/><rect class="svg__rect" x="79.45" y="0" width="104.67999999999999" height="35" fill="#E02E2D"/><path class="svg__text" d="M17.33 22L14.22 22L14.22 13.47L17.14 13.47Q18.59 13.47 19.34 14.05Q20.10 14.63 20.10 15.78L20.10 15.78Q20.10 16.36 19.78 16.83Q19.47 17.30 18.86 17.56L18.86 17.56Q19.55 17.75 19.93 18.26Q20.31 18.78 20.31 19.51L20.31 19.51Q20.31 20.71 19.53 21.36Q18.76 22 17.33 22L17.33 22ZM15.70 18.15L15.70 20.82L17.35 20.82Q18.04 20.82 18.44 20.47Q18.83 20.13 18.83 19.51L18.83 19.51Q18.83 18.18 17.47 18.15L17.47 18.15L15.70 18.15ZM15.70 14.66L15.70 17.06L17.15 17.06Q17.84 17.06 18.23 16.75Q18.62 16.43 18.62 15.86L18.62 15.86Q18.62 15.23 18.26 14.95Q17.90 14.66 17.14 14.66L17.14 14.66L15.70 14.66ZM25.56 22L24.01 22L27.24 13.47L28.57 13.47L31.80 22L30.25 22L29.55 20.01L26.25 20.01L25.56 22ZM27.90 15.28L26.66 18.82L29.14 18.82L27.90 15.28ZM37.43 14.66L34.80 14.66L34.80 13.47L41.56 13.47L41.56 14.66L38.90 14.66L38.90 22L37.43 22L37.43 14.66ZM52.98 14.66L50.34 14.66L50.34 13.47L57.11 13.47L57.11 14.66L54.45 14.66L54.45 22L52.98 22L52.98 14.66ZM60.59 18.00L60.59 18.00L60.59 17.52Q60.59 16.28 61.04 15.32Q61.48 14.37 62.28 13.86Q63.09 13.35 64.13 13.35Q65.18 13.35 65.98 13.85Q66.79 14.35 67.23 15.29Q67.67 16.23 67.67 17.48L67.67 17.48L67.67 17.96Q67.67 19.21 67.24 20.16Q66.81 21.10 66.00 21.61Q65.19 22.12 64.14 22.12L64.14 22.12Q63.11 22.12 62.30 21.61Q61.48 21.10 61.04 20.17Q60.60 19.23 60.59 18.00ZM62.08 17.46L62.08 17.96Q62.08 19.36 62.62 20.13Q63.17 20.90 64.14 20.90L64.14 20.90Q65.13 20.90 65.66 20.15Q66.19 19.40 66.19 17.96L66.19 17.96L66.19 17.51Q66.19 16.09 65.65 15.34Q65.12 14.58 64.13 14.58L64.13 14.58Q63.17 14.58 62.63 15.33Q62.09 16.09 62.08 17.46L62.08 17.46Z" fill="#FFFFFF"/><path class="svg__text" d="M100.38 22L93.64 22L93.64 13.60L100.23 13.60L100.23 15.44L95.99 15.44L95.99 16.85L99.73 16.85L99.73 18.63L95.99 18.63L95.99 20.17L100.38 20.17L100.38 22ZM107.04 22L104.33 22L107.38 17.75L104.45 13.60L107.13 13.60L108.81 16.02L110.47 13.60L113.04 13.60L110.11 17.66L113.23 22L110.50 22L108.76 19.40L107.04 22ZM124.26 22L117.51 22L117.51 13.60L124.11 13.60L124.11 15.44L119.87 15.44L119.87 16.85L123.60 16.85L123.60 18.63L119.87 18.63L119.87 20.17L124.26 20.17L124.26 22ZM138.42 22L136.04 22L136.04 13.60L142.63 13.60L142.63 15.44L138.42 15.44L138.42 17.28L142.12 17.28L142.12 19.12L138.42 19.12L138.42 22ZM149.60 22L147.22 22L147.22 13.60L149.60 13.60L149.60 22ZM161.16 22L154.77 22L154.77 13.60L157.15 13.60L157.15 20.11L161.16 20.11L161.16 22ZM172.32 22L165.58 22L165.58 13.60L172.17 13.60L172.17 15.44L167.93 15.44L167.93 16.85L171.67 16.85L171.67 18.63L167.93 18.63L167.93 20.17L172.32 20.17L172.32 22Z" fill="#FFFFFF" x="92.45"/></svg>